<svg width="26" height="26" viewBox="0 0 26 26" fill="none" xmlns="http://www.w3.org/2000/svg">
<path d="M13.1804 17.6159C14.2922 17.6159 15.3585 17.1742 16.1447 16.3881C16.9308 15.6019 17.3725 14.5356 17.3725 13.4238C17.3725 12.312 16.9308 11.2457 16.1447 10.4595C15.3585 9.67336 14.2922 9.23169 13.1804 9.23169C12.0686 9.23169 11.0023 9.67336 10.2161 10.4595C9.42995 11.2457 8.98828 12.312 8.98828 13.4238C8.98828 14.5356 9.42995 15.6019 10.2161 16.3881C11.0023 17.1742 12.0686 17.6159 13.1804 17.6159Z" stroke="#DFE0DB" stroke-width="1.5" stroke-linecap="round" stroke-linejoin="round"/>
<path d="M3.74805 17.6158V9.23159C3.74805 7.84182 4.30013 6.50897 5.28285 5.52626C6.26556 4.54354 7.59841 3.99146 8.98818 3.99146H17.3724C18.7622 3.99146 20.095 4.54354 21.0777 5.52626C22.0604 6.50897 22.6125 7.84182 22.6125 9.23159V17.6158C22.6125 19.0056 22.0604 20.3384 21.0777 21.3211C20.095 22.3039 18.7622 22.8559 17.3724 22.8559H8.98818C7.59841 22.8559 6.26556 22.3039 5.28285 21.3211C4.30013 20.3384 3.74805 19.0056 3.74805 17.6158Z" stroke="#DFE0DB" stroke-width="1.5"/>
<path d="M18.9453 7.66945L18.9553 7.65845" stroke="#DFE0DB" stroke-width="1.5" stroke-linecap="round" stroke-linejoin="round"/>
</svg>
