<svg width="20" height="20" viewBox="0 0 20 20" fill="none" xmlns="http://www.w3.org/2000/svg">
<path fill-rule="evenodd" clip-rule="evenodd" d="M4.77817 1.70258C5.79234 0.694251 7.46234 0.873418 8.31151 2.00842L9.36317 3.41175C10.0548 4.33508 9.99317 5.62508 9.17234 6.44092L8.97401 6.63925C8.95152 6.72251 8.94923 6.80993 8.96734 6.89425C9.01984 7.23425 9.30401 7.95425 10.494 9.13758C11.684 10.3209 12.409 10.6043 12.754 10.6576C12.8409 10.6751 12.9307 10.6725 13.0165 10.6501L13.3565 10.3118C14.0865 9.58675 15.2065 9.45092 16.1098 9.94175L17.7015 10.8084C19.0657 11.5484 19.4098 13.4018 18.2932 14.5126L17.109 15.6893C16.7357 16.0601 16.234 16.3693 15.6223 16.4268C14.114 16.5676 10.5998 16.3876 6.90567 12.7151C3.45817 9.28675 2.79651 6.29675 2.71234 4.82342C2.67067 4.07842 3.02234 3.44842 3.47067 3.00342L4.77817 1.70258ZM7.31151 2.75758C6.88901 2.19342 6.10234 2.14842 5.65901 2.58925L4.35067 3.88925C4.07567 4.16258 3.94401 4.46425 3.96067 4.75258C4.02734 5.92342 4.56067 8.62092 7.78734 11.8293C11.1723 15.1943 14.2982 15.2951 15.5065 15.1818C15.7532 15.1593 15.9982 15.0309 16.2273 14.8034L17.4107 13.6259C17.8923 13.1476 17.7865 12.2759 17.1048 11.9059L15.5132 11.0401C15.0732 10.8018 14.5582 10.8801 14.2382 11.1984L13.859 11.5759L13.4173 11.1326C13.859 11.5759 13.8582 11.5768 13.8573 11.5768L13.8565 11.5784L13.854 11.5809L13.8482 11.5859L13.8357 11.5976C13.8005 11.6302 13.7626 11.6598 13.7223 11.6859C13.6557 11.7301 13.5673 11.7793 13.4565 11.8201C13.2315 11.9043 12.9332 11.9493 12.5648 11.8926C11.8423 11.7818 10.8848 11.2893 9.61234 10.0243C8.34067 8.75925 7.84401 7.80758 7.73234 7.08592C7.67484 6.71759 7.72067 6.41925 7.80567 6.19425C7.85246 6.06764 7.91943 5.94944 8.00401 5.84425L8.03067 5.81508L8.04234 5.80258L8.04734 5.79758L8.04984 5.79508L8.05151 5.79342L8.29151 5.55508C8.64817 5.19925 8.69817 4.61008 8.36234 4.16092L7.31151 2.75758Z" fill="#DFE0DB"/>
</svg>
